<?xml version="1.0" encoding="UTF-8" standalone="no"?>
<!-- Created with Inkscape (http://www.inkscape.org/) -->

<svg
   width="214.97395mm"
   height="99.48333mm"
   viewBox="0 0 214.97396 99.48333"
   version="1.1"
   id="svg6474"
   xml:space="preserve"
   inkscape:version="1.2.2 (732a01da63, 2022-12-09)"
   sodipodi:docname="st-logo.svg"
   xmlns:inkscape="http://www.inkscape.org/namespaces/inkscape"
   xmlns:sodipodi="http://sodipodi.sourceforge.net/DTD/sodipodi-0.dtd"
   xmlns="http://www.w3.org/2000/svg"
   xmlns:svg="http://www.w3.org/2000/svg"><sodipodi:namedview
     id="namedview6476"
     pagecolor="#505050"
     bordercolor="#eeeeee"
     borderopacity="1"
     inkscape:showpageshadow="0"
     inkscape:pageopacity="0"
     inkscape:pagecheckerboard="0"
     inkscape:deskcolor="#505050"
     inkscape:document-units="mm"
     showgrid="false"
     inkscape:zoom="1.4142136"
     inkscape:cx="424.97116"
     inkscape:cy="183.84776"
     inkscape:window-width="2203"
     inkscape:window-height="1262"
     inkscape:window-x="2293"
     inkscape:window-y="320"
     inkscape:window-maximized="1"
     inkscape:current-layer="layer1" /><defs
     id="defs6471" /><g
     inkscape:label="Layer 1"
     inkscape:groupmode="layer"
     id="layer1"
     transform="translate(107.09634,-57.080269)"><path
       style="font-variation-settings:normal;opacity:1;vector-effect:none;fill:#E73A52;fill-opacity:1;stroke:none;stroke-width:0.264583px;stroke-linecap:butt;stroke-linejoin:miter;stroke-miterlimit:4;stroke-dasharray:none;stroke-dashoffset:0;stroke-opacity:1;-inkscape-stroke:none;stop-color:#000000;stop-opacity:1"
       d="M 12.158966,68.856949 H 26.781312 L 6.4676327,89.170629 v 47.106721 h -9.937943 v -5.91023 c 0,0 3.98393438,-3.23968 3.98393438,-9.14991 0,-5.91023 -3.85259518,-8.40566 -3.85259518,-8.40566 V 99.19613 l -6.9390469,6.93905 -7.442512,-7.442515 29.813826,-29.813826"
       id="path9624" /><path
       style="font-variation-settings:normal;opacity:1;vector-effect:none;fill:#E73A52;fill-opacity:1;stroke:none;stroke-width:0.264583px;stroke-linecap:butt;stroke-linejoin:miter;stroke-miterlimit:4;stroke-dasharray:none;stroke-dashoffset:0;stroke-opacity:1;-inkscape-stroke:none;stop-color:#000000;stop-opacity:1"
       d="m 8.4814902,98.495656 v 13.746754 l 9.5220368,9.52204 v -13.81242 z"
       id="path9626" /><path
       style="font-variation-settings:normal;opacity:1;vector-effect:none;fill:#E73A52;fill-opacity:1;stroke:none;stroke-width:0.264583px;stroke-linecap:butt;stroke-linejoin:miter;stroke-miterlimit:4;stroke-dasharray:none;stroke-dashoffset:0;stroke-opacity:1;-inkscape-stroke:none;stop-color:#000000;stop-opacity:1"
       d="m -27.417684,108.38982 7.376843,7.37684 -4.728187,4.72819 -7.311173,-7.31118 z"
       id="path9682" /><path
       style="font-variation-settings:normal;opacity:1;vector-effect:none;fill:#E73A52;fill-opacity:1;stroke:none;stroke-width:0.264583px;stroke-linecap:butt;stroke-linejoin:miter;stroke-miterlimit:4;stroke-dasharray:none;stroke-dashoffset:0;stroke-opacity:1;-inkscape-stroke:none;stop-color:#000000;stop-opacity:1"
       d="m -6.2900913,84.100842 -6.6476557,6.647656 -2.94349,-2.94349 c -0.614055,-0.614055 -1.918229,-0.892969 -2.447396,-0.892969 -0.529167,0 -1.696421,0.108922 -2.248958,0.661459 l -2.497005,2.497005 c -0.772351,0.772351 -1.405599,1.925732 -1.405599,2.960026 0,1.02526 0.534735,1.890725 0.79375,2.14974 l 18.6365881,18.636591 c 1.8865496,1.88655 3.2246093,5.01897 3.2246093,7.32565 0,2.30668 -0.2939664,4.8911 -1.8851562,6.48229 l -8.0532552,8.05325 c -1.842025,1.84202 -4.455073,2.89388 -7.259505,2.89388 -2.804432,0 -5.521901,-1.61929 -7.474479,-3.57187 l -22.770703,-22.7707 V 98.619852 l 27.07845,27.078448 c 0,0 1.281576,1.39733 2.505274,1.39733 1.223698,0 1.839745,0.13292 2.447395,-0.42995 l 3.141927,-2.91041 c 0.658635,-0.6101 1.12448,-1.19063 1.12448,-2.4474 0,-1.25677 -0.480829,-2.26677 -1.256771,-3.04271 L -33.988659,98.504097 c -1.491392,-1.491391 -2.000911,-5.010548 -2.000911,-6.002735 0,-0.992187 0.219872,-4.402099 1.653646,-5.820833 l 9.458854,-9.359635 c 1.407973,-1.393204 4.365625,-2.017448 5.589323,-2.017448 1.223698,0 4.730655,0.327771 6.250781,1.885156 z"
       id="path9684"
       sodipodi:nodetypes="ccszssssszsszscccsssssszsszsc" /><path
       style="font-variation-settings:normal;opacity:1;vector-effect:none;fill:#E73A52;fill-opacity:1;stroke:none;stroke-width:0.264583px;stroke-linecap:butt;stroke-linejoin:miter;stroke-miterlimit:4;stroke-dasharray:none;stroke-dashoffset:0;stroke-opacity:1;-inkscape-stroke:none;stop-color:#000000;stop-opacity:1"
       d="m -107.09634,138.15982 h 80.892464 c 0,0 2.946646,2.64263 7.27307,2.64263 4.326427,0 7.717409,-2.8531 7.717409,-2.8531 H 20.14734 V 78.445373 L 31.766384,66.826328 H 11.271627 L 1.6587196,76.439236 H -10.854154 c 0,0 -2.711979,-3.351676 -7.60677,-3.351676 -4.894792,0 -8.367448,3.241146 -8.367448,3.241146 H -107.09634 V 57.080269 H 107.87762 V 156.5636 h -214.97396 z"
       id="path11234"
       sodipodi:nodetypes="ccscccccccsccccccc" /></g></svg>
